<mxfile host="Electron" agent="Mozilla/5.0 (Windows NT 10.0; Win64; x64) AppleWebKit/537.36 (KHTML, like Gecko) draw.io/28.2.5 Chrome/138.0.7204.251 Electron/37.6.1 Safari/537.36" version="28.2.5">
  <diagram name="Página-1" id="35Jp-sJqlRmFBOPxJIAM">
    <mxGraphModel dx="2253" dy="841" grid="1" gridSize="10" guides="1" tooltips="1" connect="1" arrows="1" fold="1" page="1" pageScale="1" pageWidth="827" pageHeight="1169" math="0" shadow="0">
      <root>
        <mxCell id="0" />
        <mxCell id="1" parent="0" />
        <mxCell id="IelpII5cJFul1W5xb_tL-4" value="" style="edgeStyle=orthogonalEdgeStyle;rounded=0;orthogonalLoop=1;jettySize=auto;html=1;" edge="1" parent="1" source="IelpII5cJFul1W5xb_tL-1" target="IelpII5cJFul1W5xb_tL-3">
          <mxGeometry relative="1" as="geometry" />
        </mxCell>
        <mxCell id="IelpII5cJFul1W5xb_tL-1" value="inicio" style="rounded=1;whiteSpace=wrap;html=1;" vertex="1" parent="1">
          <mxGeometry x="120" y="30" width="120" height="60" as="geometry" />
        </mxCell>
        <mxCell id="IelpII5cJFul1W5xb_tL-6" value="" style="edgeStyle=orthogonalEdgeStyle;rounded=0;orthogonalLoop=1;jettySize=auto;html=1;" edge="1" parent="1" source="IelpII5cJFul1W5xb_tL-3" target="IelpII5cJFul1W5xb_tL-5">
          <mxGeometry relative="1" as="geometry" />
        </mxCell>
        <mxCell id="IelpII5cJFul1W5xb_tL-3" value="&lt;div&gt;&lt;span style=&quot;background-color: transparent; color: light-dark(rgb(0, 0, 0), rgb(255, 255, 255));&quot;&gt;menu&lt;/span&gt;&lt;/div&gt;&lt;div&gt;&lt;br&gt;&lt;/div&gt;1 - Soma&lt;div&gt;2- Subtracção&lt;/div&gt;&lt;div&gt;3- MUltiplicação&lt;/div&gt;&lt;div&gt;4- Divisão&lt;/div&gt;&lt;div&gt;&lt;br&gt;&lt;/div&gt;&lt;div&gt;ler opcao&lt;/div&gt;" style="rounded=0;whiteSpace=wrap;html=1;" vertex="1" parent="1">
          <mxGeometry x="120" y="180" width="120" height="150" as="geometry" />
        </mxCell>
        <mxCell id="IelpII5cJFul1W5xb_tL-18" value="" style="edgeStyle=orthogonalEdgeStyle;rounded=0;orthogonalLoop=1;jettySize=auto;html=1;" edge="1" parent="1" source="IelpII5cJFul1W5xb_tL-5" target="IelpII5cJFul1W5xb_tL-7">
          <mxGeometry relative="1" as="geometry" />
        </mxCell>
        <mxCell id="IelpII5cJFul1W5xb_tL-5" value="ler num1&lt;div&gt;ler num2&lt;/div&gt;" style="rounded=0;whiteSpace=wrap;html=1;" vertex="1" parent="1">
          <mxGeometry x="120" y="400" width="120" height="60" as="geometry" />
        </mxCell>
        <mxCell id="IelpII5cJFul1W5xb_tL-12" value="" style="edgeStyle=orthogonalEdgeStyle;rounded=0;orthogonalLoop=1;jettySize=auto;html=1;" edge="1" parent="1" source="IelpII5cJFul1W5xb_tL-7" target="IelpII5cJFul1W5xb_tL-11">
          <mxGeometry relative="1" as="geometry" />
        </mxCell>
        <mxCell id="IelpII5cJFul1W5xb_tL-7" value="qual opcção" style="rhombus;whiteSpace=wrap;html=1;" vertex="1" parent="1">
          <mxGeometry x="140" y="545" width="80" height="80" as="geometry" />
        </mxCell>
        <mxCell id="IelpII5cJFul1W5xb_tL-39" value="" style="edgeStyle=orthogonalEdgeStyle;rounded=0;orthogonalLoop=1;jettySize=auto;html=1;" edge="1" parent="1" source="IelpII5cJFul1W5xb_tL-8" target="IelpII5cJFul1W5xb_tL-38">
          <mxGeometry relative="1" as="geometry" />
        </mxCell>
        <mxCell id="IelpII5cJFul1W5xb_tL-8" value="resultado &amp;lt;-&amp;nbsp; num1 - num2" style="rounded=0;whiteSpace=wrap;html=1;" vertex="1" parent="1">
          <mxGeometry x="-40" y="640" width="120" height="60" as="geometry" />
        </mxCell>
        <mxCell id="IelpII5cJFul1W5xb_tL-29" value="" style="edgeStyle=orthogonalEdgeStyle;rounded=0;orthogonalLoop=1;jettySize=auto;html=1;" edge="1" parent="1" source="IelpII5cJFul1W5xb_tL-9" target="IelpII5cJFul1W5xb_tL-28">
          <mxGeometry relative="1" as="geometry" />
        </mxCell>
        <mxCell id="IelpII5cJFul1W5xb_tL-9" value="resultado &amp;lt;- num1 / num2" style="rounded=0;whiteSpace=wrap;html=1;" vertex="1" parent="1">
          <mxGeometry x="310" y="640" width="120" height="60" as="geometry" />
        </mxCell>
        <mxCell id="IelpII5cJFul1W5xb_tL-25" value="" style="edgeStyle=orthogonalEdgeStyle;rounded=0;orthogonalLoop=1;jettySize=auto;html=1;" edge="1" parent="1" source="IelpII5cJFul1W5xb_tL-10" target="IelpII5cJFul1W5xb_tL-24">
          <mxGeometry relative="1" as="geometry" />
        </mxCell>
        <mxCell id="IelpII5cJFul1W5xb_tL-10" value="resultado &amp;lt;- num1 * num2" style="rounded=0;whiteSpace=wrap;html=1;" vertex="1" parent="1">
          <mxGeometry x="310" y="555" width="120" height="60" as="geometry" />
        </mxCell>
        <mxCell id="IelpII5cJFul1W5xb_tL-35" value="" style="edgeStyle=orthogonalEdgeStyle;rounded=0;orthogonalLoop=1;jettySize=auto;html=1;" edge="1" parent="1" source="IelpII5cJFul1W5xb_tL-11" target="IelpII5cJFul1W5xb_tL-34">
          <mxGeometry relative="1" as="geometry" />
        </mxCell>
        <mxCell id="IelpII5cJFul1W5xb_tL-11" value="resultado &amp;lt;- num1 + num2" style="rounded=0;whiteSpace=wrap;html=1;" vertex="1" parent="1">
          <mxGeometry x="-40" y="555" width="120" height="60" as="geometry" />
        </mxCell>
        <mxCell id="IelpII5cJFul1W5xb_tL-16" value="" style="shape=waypoint;sketch=0;size=6;pointerEvents=1;points=[];fillColor=default;resizable=0;rotatable=0;perimeter=centerPerimeter;snapToPoint=1;" vertex="1" parent="1">
          <mxGeometry x="70" y="660" width="20" height="20" as="geometry" />
        </mxCell>
        <mxCell id="IelpII5cJFul1W5xb_tL-19" value="" style="endArrow=classic;html=1;rounded=0;entryX=0;entryY=0.5;entryDx=0;entryDy=0;entryPerimeter=0;exitX=0.263;exitY=0.838;exitDx=0;exitDy=0;exitPerimeter=0;" edge="1" parent="1" source="IelpII5cJFul1W5xb_tL-7" target="IelpII5cJFul1W5xb_tL-16">
          <mxGeometry width="50" height="50" relative="1" as="geometry">
            <mxPoint x="180" y="860" as="sourcePoint" />
            <mxPoint x="230" y="810" as="targetPoint" />
            <Array as="points">
              <mxPoint x="160" y="640" />
              <mxPoint x="160" y="670" />
              <mxPoint x="140" y="670" />
            </Array>
          </mxGeometry>
        </mxCell>
        <mxCell id="IelpII5cJFul1W5xb_tL-21" value="" style="endArrow=classic;html=1;rounded=0;exitX=1;exitY=0.5;exitDx=0;exitDy=0;entryX=0;entryY=0.5;entryDx=0;entryDy=0;" edge="1" parent="1" source="IelpII5cJFul1W5xb_tL-7" target="IelpII5cJFul1W5xb_tL-10">
          <mxGeometry width="50" height="50" relative="1" as="geometry">
            <mxPoint x="250" y="585" as="sourcePoint" />
            <mxPoint x="280" y="520" as="targetPoint" />
          </mxGeometry>
        </mxCell>
        <mxCell id="IelpII5cJFul1W5xb_tL-22" value="" style="endArrow=classic;html=1;rounded=0;entryX=0;entryY=0.5;entryDx=0;entryDy=0;exitX=1;exitY=1;exitDx=0;exitDy=0;" edge="1" parent="1" source="IelpII5cJFul1W5xb_tL-7" target="IelpII5cJFul1W5xb_tL-9">
          <mxGeometry width="50" height="50" relative="1" as="geometry">
            <mxPoint x="190" y="920" as="sourcePoint" />
            <mxPoint x="316.03999999999996" y="737.98" as="targetPoint" />
            <Array as="points">
              <mxPoint x="200" y="670" />
            </Array>
          </mxGeometry>
        </mxCell>
        <mxCell id="IelpII5cJFul1W5xb_tL-23" value="fim" style="rounded=1;whiteSpace=wrap;html=1;" vertex="1" parent="1">
          <mxGeometry x="120" y="800" width="120" height="60" as="geometry" />
        </mxCell>
        <mxCell id="IelpII5cJFul1W5xb_tL-27" value="" style="edgeStyle=orthogonalEdgeStyle;rounded=0;orthogonalLoop=1;jettySize=auto;html=1;" edge="1" parent="1" source="IelpII5cJFul1W5xb_tL-24" target="IelpII5cJFul1W5xb_tL-26">
          <mxGeometry relative="1" as="geometry" />
        </mxCell>
        <mxCell id="IelpII5cJFul1W5xb_tL-24" value="" style="shape=waypoint;sketch=0;size=6;pointerEvents=1;points=[];fillColor=default;resizable=0;rotatable=0;perimeter=centerPerimeter;snapToPoint=1;rounded=0;" vertex="1" parent="1">
          <mxGeometry x="600" y="830" width="20" height="20" as="geometry" />
        </mxCell>
        <mxCell id="IelpII5cJFul1W5xb_tL-26" value="" style="shape=waypoint;sketch=0;size=6;pointerEvents=1;points=[];fillColor=default;resizable=0;rotatable=0;perimeter=centerPerimeter;snapToPoint=1;rounded=0;" vertex="1" parent="1">
          <mxGeometry x="230" y="830" width="20" height="20" as="geometry" />
        </mxCell>
        <mxCell id="IelpII5cJFul1W5xb_tL-31" value="" style="edgeStyle=orthogonalEdgeStyle;rounded=0;orthogonalLoop=1;jettySize=auto;html=1;" edge="1" parent="1" source="IelpII5cJFul1W5xb_tL-28" target="IelpII5cJFul1W5xb_tL-30">
          <mxGeometry relative="1" as="geometry" />
        </mxCell>
        <mxCell id="IelpII5cJFul1W5xb_tL-28" value="" style="shape=waypoint;sketch=0;size=6;pointerEvents=1;points=[];fillColor=default;resizable=0;rotatable=0;perimeter=centerPerimeter;snapToPoint=1;rounded=0;" vertex="1" parent="1">
          <mxGeometry x="560" y="660" width="20" height="20" as="geometry" />
        </mxCell>
        <mxCell id="IelpII5cJFul1W5xb_tL-33" value="" style="edgeStyle=orthogonalEdgeStyle;rounded=0;orthogonalLoop=1;jettySize=auto;html=1;" edge="1" parent="1" source="IelpII5cJFul1W5xb_tL-30" target="IelpII5cJFul1W5xb_tL-32">
          <mxGeometry relative="1" as="geometry">
            <Array as="points">
              <mxPoint x="570" y="820" />
            </Array>
          </mxGeometry>
        </mxCell>
        <mxCell id="IelpII5cJFul1W5xb_tL-30" value="" style="shape=waypoint;sketch=0;size=6;pointerEvents=1;points=[];fillColor=default;resizable=0;rotatable=0;perimeter=centerPerimeter;snapToPoint=1;rounded=0;" vertex="1" parent="1">
          <mxGeometry x="560" y="790" width="20" height="20" as="geometry" />
        </mxCell>
        <mxCell id="IelpII5cJFul1W5xb_tL-32" value="" style="shape=waypoint;sketch=0;size=6;pointerEvents=1;points=[];fillColor=default;resizable=0;rotatable=0;perimeter=centerPerimeter;snapToPoint=1;rounded=0;" vertex="1" parent="1">
          <mxGeometry x="230" y="810" width="20" height="20" as="geometry" />
        </mxCell>
        <mxCell id="IelpII5cJFul1W5xb_tL-37" value="" style="edgeStyle=orthogonalEdgeStyle;rounded=0;orthogonalLoop=1;jettySize=auto;html=1;" edge="1" parent="1" source="IelpII5cJFul1W5xb_tL-34" target="IelpII5cJFul1W5xb_tL-36">
          <mxGeometry relative="1" as="geometry">
            <Array as="points">
              <mxPoint x="-170" y="850" />
              <mxPoint x="120" y="850" />
            </Array>
          </mxGeometry>
        </mxCell>
        <mxCell id="IelpII5cJFul1W5xb_tL-34" value="" style="shape=waypoint;sketch=0;size=6;pointerEvents=1;points=[];fillColor=default;resizable=0;rotatable=0;perimeter=centerPerimeter;snapToPoint=1;rounded=0;" vertex="1" parent="1">
          <mxGeometry x="-180" y="810" width="20" height="20" as="geometry" />
        </mxCell>
        <mxCell id="IelpII5cJFul1W5xb_tL-36" value="" style="shape=waypoint;sketch=0;size=6;pointerEvents=1;points=[];fillColor=default;resizable=0;rotatable=0;perimeter=centerPerimeter;snapToPoint=1;rounded=0;" vertex="1" parent="1">
          <mxGeometry x="110" y="840" width="20" height="20" as="geometry" />
        </mxCell>
        <mxCell id="IelpII5cJFul1W5xb_tL-41" value="" style="edgeStyle=orthogonalEdgeStyle;rounded=0;orthogonalLoop=1;jettySize=auto;html=1;" edge="1" parent="1" source="IelpII5cJFul1W5xb_tL-38" target="IelpII5cJFul1W5xb_tL-40">
          <mxGeometry relative="1" as="geometry" />
        </mxCell>
        <mxCell id="IelpII5cJFul1W5xb_tL-38" value="" style="shape=waypoint;sketch=0;size=6;pointerEvents=1;points=[];fillColor=default;resizable=0;rotatable=0;perimeter=centerPerimeter;snapToPoint=1;rounded=0;" vertex="1" parent="1">
          <mxGeometry x="-140" y="660" width="20" height="20" as="geometry" />
        </mxCell>
        <mxCell id="IelpII5cJFul1W5xb_tL-43" value="" style="edgeStyle=orthogonalEdgeStyle;rounded=0;orthogonalLoop=1;jettySize=auto;html=1;" edge="1" parent="1" source="IelpII5cJFul1W5xb_tL-40" target="IelpII5cJFul1W5xb_tL-42">
          <mxGeometry relative="1" as="geometry">
            <Array as="points">
              <mxPoint x="-130" y="820" />
            </Array>
          </mxGeometry>
        </mxCell>
        <mxCell id="IelpII5cJFul1W5xb_tL-40" value="" style="shape=waypoint;sketch=0;size=6;pointerEvents=1;points=[];fillColor=default;resizable=0;rotatable=0;perimeter=centerPerimeter;snapToPoint=1;rounded=0;" vertex="1" parent="1">
          <mxGeometry x="-140" y="800" width="20" height="20" as="geometry" />
        </mxCell>
        <mxCell id="IelpII5cJFul1W5xb_tL-42" value="" style="shape=waypoint;sketch=0;size=6;pointerEvents=1;points=[];fillColor=default;resizable=0;rotatable=0;perimeter=centerPerimeter;snapToPoint=1;rounded=0;" vertex="1" parent="1">
          <mxGeometry x="110" y="810" width="20" height="20" as="geometry" />
        </mxCell>
      </root>
    </mxGraphModel>
  </diagram>
</mxfile>
